<svg width="88" height="13" viewBox="0 0 88 13" fill="none" xmlns="http://www.w3.org/2000/svg">
<path d="M1.672 12.096C0.914667 12.1387 0.536 11.8613 0.536 11.264C0.536 10.7627 0.829333 10.4853 1.416 10.432L1.928 10.4C2.36533 10.3787 2.70667 10.2347 2.952 9.968C3.19733 9.70133 3.34133 9.31733 3.384 8.816L3.96 1.648C3.98133 1.33867 4.09333 1.09333 4.296 0.912C4.49867 0.730666 4.75467 0.639999 5.064 0.639999C5.384 0.639999 5.62933 0.730666 5.8 0.912C5.97067 1.09333 6.04533 1.33867 6.024 1.648L5.464 8.816C5.38933 9.81867 5.07467 10.5973 4.52 11.152C3.96533 11.696 3.18667 12 2.184 12.064L1.672 12.096ZM16.5744 10.768C16.649 10.9067 16.6864 11.0507 16.6864 11.2C16.6864 11.456 16.5797 11.6747 16.3664 11.856C16.153 12.0373 15.9077 12.128 15.6304 12.128C15.449 12.128 15.273 12.08 15.1024 11.984C14.9424 11.888 14.8144 11.7387 14.7184 11.536L13.1344 8.4C12.9637 8.05867 12.761 7.81867 12.5264 7.68C12.2917 7.54133 11.977 7.472 11.5824 7.472H10.0304L9.75838 11.072C9.73704 11.3813 9.62504 11.632 9.42238 11.824C9.23038 12.0053 8.97971 12.096 8.67038 12.096C8.36104 12.096 8.12104 12.0053 7.95038 11.824C7.77971 11.632 7.70504 11.376 7.72638 11.056L8.46238 1.696C8.48371 1.38667 8.58504 1.14667 8.76638 0.976C8.95838 0.805333 9.20904 0.719999 9.51838 0.719999H13.5504C14.713 0.719999 15.609 0.997333 16.2384 1.552C16.8784 2.10667 17.1984 2.88 17.1984 3.872C17.1984 5.86667 16.185 7.01333 14.1584 7.312C14.425 7.38667 14.6544 7.52 14.8464 7.712C15.0384 7.89333 15.2197 8.15467 15.3904 8.496L16.5744 10.768ZM13.0384 5.888C14.521 5.888 15.2624 5.25333 15.2624 3.984C15.2624 3.41867 15.1024 3.00267 14.7824 2.736C14.4624 2.45867 13.9717 2.32 13.3104 2.32H10.4304L10.1584 5.888H13.0384ZM23.5874 12.144C22.0834 12.144 20.9474 11.792 20.1794 11.088C19.4114 10.3733 19.0274 9.328 19.0274 7.952C19.0274 7.81333 19.038 7.60533 19.0594 7.328L19.5234 1.648C19.5447 1.33867 19.6514 1.09333 19.8434 0.912C20.046 0.730666 20.2967 0.639999 20.5954 0.639999C20.9047 0.639999 21.1447 0.735999 21.3154 0.927999C21.486 1.10933 21.5607 1.35467 21.5394 1.664L21.0914 7.36C21.0807 7.47733 21.0754 7.648 21.0754 7.872C21.0754 8.75733 21.2887 9.41867 21.7154 9.856C22.142 10.2827 22.798 10.496 23.6834 10.496C24.5154 10.496 25.166 10.272 25.6354 9.824C26.1047 9.36533 26.3767 8.63467 26.4514 7.632L26.9154 1.648C26.9474 1.33867 27.0594 1.09333 27.2514 0.912C27.454 0.730666 27.7047 0.639999 28.0034 0.639999C28.3127 0.639999 28.5527 0.735999 28.7234 0.927999C28.894 1.10933 28.9687 1.35467 28.9474 1.664L28.4834 7.472C28.3554 9.01867 27.8807 10.1867 27.0594 10.976C26.238 11.7547 25.0807 12.144 23.5874 12.144ZM31.5458 12.096C31.2364 12.096 30.9911 12.0053 30.8098 11.824C30.6391 11.632 30.5644 11.376 30.5858 11.056L31.3378 1.648C31.3591 1.33867 31.4658 1.09333 31.6578 0.912C31.8604 0.730666 32.1164 0.639999 32.4258 0.639999C32.7351 0.639999 32.9751 0.735999 33.1458 0.927999C33.3271 1.10933 33.4071 1.35467 33.3858 1.664L32.6498 11.072C32.6178 11.3813 32.5004 11.632 32.2978 11.824C32.1058 12.0053 31.8551 12.096 31.5458 12.096ZM42.8458 0.719999C43.1018 0.719999 43.3044 0.794666 43.4538 0.943999C43.6031 1.09333 43.6778 1.28 43.6778 1.504C43.6778 1.77067 43.5711 2.04267 43.3578 2.32L37.0698 10.352H42.2218C42.5204 10.352 42.7444 10.4213 42.8938 10.56C43.0431 10.688 43.1178 10.8747 43.1178 11.12C43.1178 11.7067 42.7818 12 42.1098 12H35.2778C35.0111 12 34.8031 11.9253 34.6538 11.776C34.5151 11.6267 34.4458 11.4347 34.4458 11.2C34.4458 10.912 34.5471 10.6453 34.7498 10.4L41.0538 2.368H36.1098C35.8111 2.368 35.5871 2.304 35.4378 2.176C35.2884 2.048 35.2138 1.86133 35.2138 1.616C35.2138 1.30667 35.2938 1.08267 35.4538 0.943999C35.6244 0.794666 35.8804 0.719999 36.2218 0.719999H42.8458ZM48.5378 12.144C47.6844 12.144 46.9164 12.048 46.2338 11.856C45.5511 11.664 44.9751 11.4027 44.5058 11.072C44.1964 10.8587 44.0418 10.576 44.0418 10.224C44.0418 10 44.1058 9.808 44.2338 9.648C44.3724 9.47733 44.5484 9.392 44.7618 9.392C44.9111 9.392 45.0871 9.45067 45.2898 9.568C45.7058 9.86667 46.1911 10.1013 46.7458 10.272C47.3111 10.432 47.9298 10.512 48.6018 10.512C49.3804 10.512 49.9724 10.384 50.3778 10.128C50.7938 9.86133 51.0018 9.488 51.0018 9.008C51.0018 8.69867 50.8898 8.44267 50.6658 8.24C50.4524 8.02667 50.1804 7.856 49.8498 7.728C49.5191 7.58933 49.0711 7.44 48.5058 7.28C47.7271 7.056 47.0871 6.83733 46.5858 6.624C46.0951 6.4 45.6738 6.07467 45.3218 5.648C44.9698 5.22133 44.7938 4.66133 44.7938 3.968C44.7938 3.28533 44.9751 2.688 45.3378 2.176C45.7111 1.664 46.2391 1.26933 46.9218 0.992C47.6044 0.714666 48.3991 0.575999 49.3058 0.575999C50.0844 0.575999 50.8098 0.682666 51.4818 0.896C52.1538 1.10933 52.7031 1.39733 53.1298 1.76C53.3644 1.952 53.4818 2.18667 53.4818 2.464C53.4818 2.688 53.4071 2.88533 53.2578 3.056C53.1191 3.216 52.9378 3.296 52.7138 3.296C52.5218 3.296 52.3191 3.22667 52.1058 3.088C51.7538 2.832 51.3271 2.624 50.8258 2.464C50.3244 2.29333 49.8018 2.208 49.2578 2.208C48.4898 2.208 47.8924 2.352 47.4658 2.64C47.0498 2.91733 46.8418 3.30667 46.8418 3.808C46.8418 4.13867 46.9538 4.416 47.1778 4.64C47.4124 4.864 47.6951 5.04 48.0258 5.168C48.3564 5.296 48.8258 5.45067 49.4338 5.632C50.2124 5.856 50.8418 6.07467 51.3218 6.288C51.8018 6.49067 52.2124 6.8 52.5538 7.216C52.8951 7.62133 53.0658 8.14933 53.0658 8.8C53.0658 9.84533 52.6658 10.6667 51.8658 11.264C51.0658 11.8507 49.9564 12.144 48.5378 12.144ZM55.7489 12.096C55.4395 12.096 55.1942 12.0053 55.0129 11.824C54.8422 11.632 54.7675 11.376 54.7889 11.056L55.5409 1.648C55.5622 1.33867 55.6689 1.09333 55.8609 0.912C56.0635 0.730666 56.3195 0.639999 56.6289 0.639999C56.9382 0.639999 57.1782 0.735999 57.3489 0.927999C57.5302 1.10933 57.6102 1.35467 57.5889 1.664L56.8529 11.072C56.8209 11.3813 56.7035 11.632 56.5009 11.824C56.3089 12.0053 56.0582 12.096 55.7489 12.096ZM60.2009 12C59.8809 12 59.6409 11.9147 59.4809 11.744C59.3315 11.5733 59.2675 11.3333 59.2889 11.024L60.0409 1.648C60.0622 1.33867 60.1689 1.09333 60.3609 0.912C60.5635 0.730666 60.8195 0.639999 61.1289 0.639999C61.4489 0.639999 61.6942 0.735999 61.8649 0.927999C62.0355 1.10933 62.1102 1.35467 62.0889 1.664L61.4009 10.304H65.8809C66.1689 10.304 66.3929 10.3733 66.5529 10.512C66.7129 10.6507 66.7929 10.8427 66.7929 11.088C66.7929 11.696 66.4515 12 65.7689 12H60.2009ZM75.3861 1.168C75.4821 0.986666 75.6048 0.853333 75.7541 0.768C75.9035 0.672 76.0688 0.624 76.2501 0.624C76.5061 0.624 76.7301 0.704 76.9221 0.863999C77.1248 1.024 77.2261 1.22667 77.2261 1.472C77.2261 1.632 77.1835 1.792 77.0981 1.952L72.1061 11.456C71.9995 11.6693 71.8395 11.8347 71.6261 11.952C71.4235 12.0587 71.2048 12.112 70.9701 12.112C70.7355 12.112 70.5221 12.0533 70.3301 11.936C70.1488 11.8187 70.0155 11.648 69.9301 11.424L66.4581 1.936C66.4155 1.84 66.3941 1.728 66.3941 1.6C66.3941 1.33333 66.5061 1.104 66.7301 0.912C66.9648 0.72 67.2208 0.624 67.4981 0.624C67.6795 0.624 67.8395 0.672 67.9781 0.768C68.1275 0.864 68.2341 1.008 68.2981 1.2L71.2101 9.424L75.3861 1.168ZM87.0899 10.832C87.1325 10.928 87.1539 11.04 87.1539 11.168C87.1539 11.4347 87.0472 11.6533 86.8339 11.824C86.6312 11.9947 86.4019 12.08 86.1459 12.08C85.9645 12.08 85.7992 12.032 85.6499 11.936C85.5005 11.84 85.3939 11.6907 85.3299 11.488L84.5779 9.36H79.0419L77.9539 11.52C77.8579 11.7013 77.7352 11.84 77.5859 11.936C77.4365 12.032 77.2712 12.08 77.0899 12.08C76.8445 12.08 76.6259 12 76.4339 11.84C76.2419 11.6693 76.1459 11.4613 76.1459 11.216C76.1459 11.0347 76.1885 10.8747 76.2739 10.736L81.2979 1.296C81.4152 1.08267 81.5752 0.917333 81.7779 0.799999C81.9805 0.682666 82.1992 0.624 82.4339 0.624C82.6685 0.624 82.8819 0.687999 83.0739 0.815999C83.2765 0.933333 83.4205 1.09867 83.5059 1.312L87.0899 10.832ZM79.8579 7.76H84.0019L82.3059 2.944L79.8579 7.76Z" fill="white"/>
</svg>
